HIERARCHY
ROOT bottle4_body
{
	OFFSET 0.000000 0.000000 0.000000
	CHANNELS 6 Xposition Yposition Zposition Yrotation Xrotation Zrotation
	End Site
	{
		OFFSET 0.000000 0.000000 0.000000
	}
}
MOTION
Frames: 86
Frame Time: 0.008333334
2.133324 4.373627 3.576474 -143.996900 3.249362 4.150234 
2.133969 4.373731 3.577044 -143.968100 3.235392 4.173274 
2.134233 4.373916 3.577162 -143.966700 3.245124 4.184588 
2.134398 4.373930 3.577185 -143.975400 3.242313 4.180648 
2.134960 4.373826 3.577120 -143.948100 3.239785 4.192673 
2.135208 4.374039 3.577260 -143.966800 3.256897 4.223068 
2.135589 4.373873 3.577461 -143.946700 3.251940 4.194085 
2.135406 4.373813 3.577637 -143.939000 3.255155 4.202557 
2.134898 4.373774 3.577406 -143.960800 3.225515 4.206443 
2.134167 4.373752 3.577420 -143.964300 3.236350 4.164262 
2.133633 4.373863 3.577784 -143.958800 3.248519 4.179047 
2.133213 4.373948 3.577830 -143.981600 3.245320 4.165718 
2.132697 4.373869 3.578021 -143.988300 3.251431 4.105707 
2.132555 4.373891 3.577864 -143.991600 3.259405 4.125326 
2.132915 4.374046 3.577837 -143.972700 3.262975 4.196701 
2.133207 4.374037 3.577772 -143.966700 3.252134 4.184873 
2.133320 4.373962 3.577857 -143.985100 3.249681 4.190228 
2.133314 4.373847 3.577894 -143.974000 3.241402 4.167111 
2.133089 4.373886 3.577879 -143.976200 3.242340 4.172315 
2.132588 4.373790 3.577590 -144.006000 3.241112 4.133156 
2.132083 4.373948 3.577738 -144.023300 3.240897 4.153975 
2.131731 4.374039 3.577811 -144.027000 3.238124 4.142290 
2.131644 4.373986 3.577672 -144.025300 3.236756 4.122881 
2.131586 4.373999 3.577696 -144.009900 3.241944 4.130824 
2.131463 4.374069 3.577661 -144.037800 3.269653 4.103333 
2.131464 4.373946 3.577388 -144.032600 3.247665 4.097659 
2.131562 4.373964 3.577281 -144.024100 3.254422 4.125360 
2.131826 4.373926 3.577179 -144.023700 3.264331 4.136011 
2.131813 4.373954 3.576882 -144.034000 3.257286 4.128193 
2.131446 4.373933 3.576599 -144.040100 3.258630 4.121757 
2.130461 4.374107 3.576446 -144.050200 3.265469 4.144248 
2.129887 4.374070 3.576022 -144.028700 3.264283 4.098532 
2.129511 4.374013 3.575780 -144.015900 3.262313 4.091051 
2.129034 4.373875 3.575536 -143.998900 3.262591 4.113224 
2.128729 4.373746 3.575380 -143.981500 3.258021 4.073832 
2.128177 4.374088 3.575055 -144.000000 3.278838 4.105603 
2.128079 4.374104 3.574406 -144.021300 3.278692 4.106834 
2.128061 4.374082 3.574081 -144.028300 3.292154 4.099341 
2.128195 4.374111 3.573707 -144.030600 3.283031 4.116920 
2.128284 4.374052 3.573588 -144.036600 3.273731 4.121117 
2.128245 4.374220 3.573660 -144.029100 3.300657 4.139832 
2.128264 4.374253 3.573160 -144.068200 3.297357 4.149985 
2.128177 4.374206 3.573044 -144.053600 3.312361 4.139218 
2.128130 4.374052 3.573170 -144.041700 3.297631 4.102050 
2.128041 4.374144 3.573616 -144.026900 3.300928 4.102382 
2.128049 4.374113 3.573783 -144.013200 3.275845 4.101113 
2.127840 4.374234 3.573897 -144.021400 3.294167 4.107664 
2.127355 4.374523 3.573786 -144.056200 3.320112 4.156336 
2.127103 4.374243 3.573954 -144.042700 3.322042 4.092803 
2.126995 4.374455 3.574015 -144.073500 3.314651 4.152734 
2.127192 4.374631 3.574168 -144.058000 3.316588 4.167245 
2.127519 4.374349 3.573934 -144.051400 3.300355 4.091525 
2.127578 4.374197 3.573798 -144.031200 3.329087 4.062060 
2.127514 4.374248 3.573354 -144.064300 3.310140 4.072935 
2.127546 4.374265 3.573195 -144.058800 3.323356 4.089386 
2.127571 4.374207 3.573306 -144.099600 3.286368 4.096865 
2.127346 4.374290 3.573121 -144.057600 3.329714 4.094637 
2.127178 4.374423 3.572809 -144.067200 3.330502 4.123116 
2.127169 4.374484 3.572572 -144.059800 3.340812 4.118882 
2.127237 4.374435 3.572575 -144.071200 3.334377 4.132724 
2.127380 4.374405 3.572591 -144.045700 3.331027 4.105319 
2.127625 4.374219 3.572825 -144.032000 3.278651 4.106171 
2.127423 4.374371 3.572733 -144.054500 3.325628 4.114859 
2.127405 4.374376 3.572796 -144.054400 3.334031 4.119948 
2.127358 4.374352 3.572725 -144.077600 3.303381 4.130487 
2.127294 4.374512 3.572874 -144.067100 3.332390 4.135740 
2.127306 4.374542 3.572978 -144.070800 3.328646 4.118024 
2.127362 4.374544 3.572756 -144.041400 3.353266 4.129216 
2.127308 4.374520 3.572805 -144.060900 3.323826 4.174649 
2.127308 4.374462 3.572720 -144.067900 3.335577 4.130892 
2.127306 4.374434 3.572641 -144.075600 3.336986 4.136622 
2.127414 4.374352 3.572582 -144.063500 3.345418 4.113946 
2.127545 4.374321 3.572386 -144.051200 3.326743 4.107220 
2.127574 4.374314 3.572348 -144.050800 3.334418 4.103189 
2.127400 4.374504 3.572286 -144.072800 3.362570 4.130334 
2.127344 4.374473 3.572412 -144.071600 3.351702 4.137386 
2.127386 4.374576 3.572237 -144.065300 3.345456 4.136036 
2.127383 4.374475 3.572232 -144.081400 3.335510 4.133317 
2.127216 4.374481 3.572086 -144.076000 3.337329 4.138743 
2.127211 4.374567 3.572126 -144.067900 3.310138 4.141922 
2.127331 4.374401 3.572168 -144.081900 3.341368 4.123663 
2.127270 4.374444 3.572081 -144.075000 3.344850 4.118132 
2.127200 4.374513 3.572118 -144.044100 3.331184 4.122023 
2.126899 4.374627 3.572338 -144.083900 3.325128 4.173209 
2.126956 4.374627 3.572210 -144.100100 3.316494 4.162286 
2.127043 4.374540 3.572177 -144.086800 3.314168 4.145250 
